<mxfile host="app.diagrams.net" modified="2024-01-17T13:50:38.158Z" agent="Mozilla/5.0 (Windows NT 10.0; Win64; x64) AppleWebKit/537.36 (KHTML, like Gecko) Chrome/120.0.0.0 Safari/537.36 OPR/106.0.0.0" etag="vsWxSfX3JSut5zvD9cuI" version="22.1.19" type="google">
  <diagram name="Page-1" id="edf60f1a-56cd-e834-aa8a-f176f3a09ee4">
    <mxGraphModel grid="1" page="1" gridSize="10" guides="1" tooltips="1" connect="1" arrows="1" fold="1" pageScale="1" pageWidth="900" pageHeight="1000" background="none" math="0" shadow="0">
      <root>
        <mxCell id="0" />
        <mxCell id="1" parent="0" />
        <mxCell id="itRAv-uE2gttykpcHnhK-1" value="" style="rounded=0;whiteSpace=wrap;html=1;" vertex="1" parent="1">
          <mxGeometry y="-60" width="890" height="1050" as="geometry" />
        </mxCell>
        <mxCell id="tqdT14tDcLekjKXoYSyh-2" style="edgeStyle=orthogonalEdgeStyle;rounded=0;orthogonalLoop=1;jettySize=auto;html=1;fontSize=18;" edge="1" parent="1" source="tqdT14tDcLekjKXoYSyh-1" target="tqdT14tDcLekjKXoYSyh-3">
          <mxGeometry relative="1" as="geometry">
            <mxPoint x="292.5" y="195" as="targetPoint" />
          </mxGeometry>
        </mxCell>
        <mxCell id="tqdT14tDcLekjKXoYSyh-1" value="&lt;font style=&quot;font-size: 18px;&quot;&gt;Start&lt;/font&gt;" style="ellipse;whiteSpace=wrap;html=1;" vertex="1" parent="1">
          <mxGeometry x="212.5" y="65" width="157.5" height="80" as="geometry" />
        </mxCell>
        <mxCell id="tqdT14tDcLekjKXoYSyh-4" style="edgeStyle=orthogonalEdgeStyle;rounded=0;orthogonalLoop=1;jettySize=auto;html=1;fontSize=18;" edge="1" parent="1" source="tqdT14tDcLekjKXoYSyh-3" target="tqdT14tDcLekjKXoYSyh-5">
          <mxGeometry relative="1" as="geometry">
            <mxPoint x="292.5" y="325" as="targetPoint" />
          </mxGeometry>
        </mxCell>
        <mxCell id="tqdT14tDcLekjKXoYSyh-3" value="numbers = [1, 8, 3, 8, 2, 6, 8, 8]&lt;br&gt;index = 0&lt;br&gt;NumLen = 8" style="shape=parallelogram;perimeter=parallelogramPerimeter;whiteSpace=wrap;html=1;fixedSize=1;fontSize=18;" vertex="1" parent="1">
          <mxGeometry x="143.75" y="175" width="297.5" height="70" as="geometry" />
        </mxCell>
        <mxCell id="tqdT14tDcLekjKXoYSyh-8" style="edgeStyle=orthogonalEdgeStyle;rounded=0;orthogonalLoop=1;jettySize=auto;html=1;entryX=0.5;entryY=0;entryDx=0;entryDy=0;fontSize=18;" edge="1" parent="1" source="tqdT14tDcLekjKXoYSyh-5" target="tqdT14tDcLekjKXoYSyh-7">
          <mxGeometry relative="1" as="geometry" />
        </mxCell>
        <mxCell id="tqdT14tDcLekjKXoYSyh-5" value="maximum = numbers [index]&lt;br&gt;count_maximal = 0" style="rounded=0;whiteSpace=wrap;html=1;fontSize=18;" vertex="1" parent="1">
          <mxGeometry x="162.5" y="275" width="260" height="60" as="geometry" />
        </mxCell>
        <mxCell id="tqdT14tDcLekjKXoYSyh-44" style="edgeStyle=orthogonalEdgeStyle;rounded=0;orthogonalLoop=1;jettySize=auto;html=1;exitX=1;exitY=0.5;exitDx=0;exitDy=0;entryX=0.5;entryY=1;entryDx=0;entryDy=0;fontSize=18;" edge="1" parent="1" source="tqdT14tDcLekjKXoYSyh-6">
          <mxGeometry relative="1" as="geometry">
            <mxPoint x="680" y="325" as="targetPoint" />
          </mxGeometry>
        </mxCell>
        <mxCell id="tqdT14tDcLekjKXoYSyh-6" value="count_maximal" style="shape=document;whiteSpace=wrap;html=1;boundedLbl=1;fontSize=18;" vertex="1" parent="1">
          <mxGeometry x="490" y="385" width="150" height="80" as="geometry" />
        </mxCell>
        <mxCell id="tqdT14tDcLekjKXoYSyh-9" style="edgeStyle=orthogonalEdgeStyle;rounded=0;orthogonalLoop=1;jettySize=auto;html=1;fontSize=18;" edge="1" parent="1" source="tqdT14tDcLekjKXoYSyh-7">
          <mxGeometry relative="1" as="geometry">
            <mxPoint x="490" y="425" as="targetPoint" />
          </mxGeometry>
        </mxCell>
        <mxCell id="tqdT14tDcLekjKXoYSyh-19" style="edgeStyle=orthogonalEdgeStyle;rounded=0;orthogonalLoop=1;jettySize=auto;html=1;exitX=0.5;exitY=1;exitDx=0;exitDy=0;fontSize=18;" edge="1" parent="1" source="tqdT14tDcLekjKXoYSyh-7">
          <mxGeometry relative="1" as="geometry">
            <mxPoint x="292.5" y="535" as="targetPoint" />
          </mxGeometry>
        </mxCell>
        <mxCell id="tqdT14tDcLekjKXoYSyh-7" value="index &amp;lt; NumLen?" style="rhombus;whiteSpace=wrap;html=1;fontSize=18;" vertex="1" parent="1">
          <mxGeometry x="147.5" y="365" width="290" height="120" as="geometry" />
        </mxCell>
        <mxCell id="tqdT14tDcLekjKXoYSyh-11" value="No" style="text;html=1;strokeColor=none;fillColor=none;align=center;verticalAlign=middle;whiteSpace=wrap;rounded=0;fontSize=18;" vertex="1" parent="1">
          <mxGeometry x="430" y="385" width="60" height="30" as="geometry" />
        </mxCell>
        <mxCell id="tqdT14tDcLekjKXoYSyh-13" value="Yes" style="text;html=1;strokeColor=none;fillColor=none;align=center;verticalAlign=middle;whiteSpace=wrap;rounded=0;fontSize=18;" vertex="1" parent="1">
          <mxGeometry x="292.5" y="495" width="60" height="30" as="geometry" />
        </mxCell>
        <mxCell id="tqdT14tDcLekjKXoYSyh-21" style="edgeStyle=orthogonalEdgeStyle;rounded=0;orthogonalLoop=1;jettySize=auto;html=1;fontSize=18;" edge="1" parent="1" source="tqdT14tDcLekjKXoYSyh-18">
          <mxGeometry relative="1" as="geometry">
            <mxPoint x="292.5" y="705" as="targetPoint" />
          </mxGeometry>
        </mxCell>
        <mxCell id="tqdT14tDcLekjKXoYSyh-25" style="edgeStyle=orthogonalEdgeStyle;rounded=0;orthogonalLoop=1;jettySize=auto;html=1;fontSize=18;" edge="1" parent="1" source="tqdT14tDcLekjKXoYSyh-18">
          <mxGeometry relative="1" as="geometry">
            <mxPoint x="532.5" y="595" as="targetPoint" />
          </mxGeometry>
        </mxCell>
        <mxCell id="tqdT14tDcLekjKXoYSyh-18" value="&lt;span style=&quot;color: rgb(0, 0, 0); font-family: Helvetica; font-size: 18px; font-style: normal; font-variant-ligatures: normal; font-variant-caps: normal; font-weight: 400; letter-spacing: normal; orphans: 2; text-align: center; text-indent: 0px; text-transform: none; widows: 2; word-spacing: 0px; -webkit-text-stroke-width: 0px; background-color: rgb(248, 249, 250); text-decoration-thickness: initial; text-decoration-style: initial; text-decoration-color: initial; float: none; display: inline !important;&quot;&gt;numbers [index] &amp;gt;&amp;nbsp;&lt;/span&gt;maximum?" style="rhombus;whiteSpace=wrap;html=1;fontSize=18;" vertex="1" parent="1">
          <mxGeometry x="110" y="535" width="365" height="120" as="geometry" />
        </mxCell>
        <mxCell id="tqdT14tDcLekjKXoYSyh-20" value="maximum = numbers [index]&lt;br&gt;count_maximal = 1" style="rounded=0;whiteSpace=wrap;html=1;fontSize=18;" vertex="1" parent="1">
          <mxGeometry x="530" y="565" width="260" height="60" as="geometry" />
        </mxCell>
        <mxCell id="tqdT14tDcLekjKXoYSyh-22" value="Yes" style="text;html=1;strokeColor=none;fillColor=none;align=center;verticalAlign=middle;whiteSpace=wrap;rounded=0;fontSize=18;" vertex="1" parent="1">
          <mxGeometry x="465" y="555" width="60" height="30" as="geometry" />
        </mxCell>
        <mxCell id="tqdT14tDcLekjKXoYSyh-24" value="No" style="text;html=1;strokeColor=none;fillColor=none;align=center;verticalAlign=middle;whiteSpace=wrap;rounded=0;fontSize=18;" vertex="1" parent="1">
          <mxGeometry x="292.5" y="665" width="60" height="30" as="geometry" />
        </mxCell>
        <mxCell id="tqdT14tDcLekjKXoYSyh-36" style="edgeStyle=orthogonalEdgeStyle;rounded=0;orthogonalLoop=1;jettySize=auto;html=1;fontSize=18;" edge="1" parent="1" source="tqdT14tDcLekjKXoYSyh-26">
          <mxGeometry relative="1" as="geometry">
            <mxPoint x="530" y="764.9999999999998" as="targetPoint" />
          </mxGeometry>
        </mxCell>
        <mxCell id="tqdT14tDcLekjKXoYSyh-38" style="edgeStyle=orthogonalEdgeStyle;rounded=0;orthogonalLoop=1;jettySize=auto;html=1;exitX=0.5;exitY=1;exitDx=0;exitDy=0;entryX=0.5;entryY=0;entryDx=0;entryDy=0;fontSize=18;" edge="1" parent="1" source="tqdT14tDcLekjKXoYSyh-26" target="tqdT14tDcLekjKXoYSyh-33">
          <mxGeometry relative="1" as="geometry" />
        </mxCell>
        <mxCell id="tqdT14tDcLekjKXoYSyh-26" value="&lt;span style=&quot;color: rgb(0, 0, 0); font-family: Helvetica; font-size: 18px; font-style: normal; font-variant-ligatures: normal; font-variant-caps: normal; font-weight: 400; letter-spacing: normal; orphans: 2; text-align: center; text-indent: 0px; text-transform: none; widows: 2; word-spacing: 0px; -webkit-text-stroke-width: 0px; background-color: rgb(248, 249, 250); text-decoration-thickness: initial; text-decoration-style: initial; text-decoration-color: initial; float: none; display: inline !important;&quot;&gt;numbers [index] =&amp;nbsp;&lt;/span&gt;maximum?" style="rhombus;whiteSpace=wrap;html=1;fontSize=18;" vertex="1" parent="1">
          <mxGeometry x="110" y="705" width="365" height="120" as="geometry" />
        </mxCell>
        <mxCell id="tqdT14tDcLekjKXoYSyh-28" value="count_maximal = count_maximal + 1" style="rounded=0;whiteSpace=wrap;html=1;fontSize=18;" vertex="1" parent="1">
          <mxGeometry x="530" y="735" width="318.12" height="60" as="geometry" />
        </mxCell>
        <mxCell id="tqdT14tDcLekjKXoYSyh-29" value="Yes" style="text;html=1;strokeColor=none;fillColor=none;align=center;verticalAlign=middle;whiteSpace=wrap;rounded=0;fontSize=18;" vertex="1" parent="1">
          <mxGeometry x="465" y="725" width="60" height="30" as="geometry" />
        </mxCell>
        <mxCell id="tqdT14tDcLekjKXoYSyh-31" value="No" style="text;html=1;strokeColor=none;fillColor=none;align=center;verticalAlign=middle;whiteSpace=wrap;rounded=0;fontSize=18;" vertex="1" parent="1">
          <mxGeometry x="232.5" y="835" width="60" height="30" as="geometry" />
        </mxCell>
        <mxCell id="tqdT14tDcLekjKXoYSyh-33" value="Index = Index + 1" style="rounded=0;whiteSpace=wrap;html=1;fontSize=18;" vertex="1" parent="1">
          <mxGeometry x="192.5" y="875" width="200" height="60" as="geometry" />
        </mxCell>
        <mxCell id="tqdT14tDcLekjKXoYSyh-40" value="" style="endArrow=classic;html=1;rounded=0;fontSize=18;exitX=0;exitY=0.5;exitDx=0;exitDy=0;entryX=0;entryY=0.5;entryDx=0;entryDy=0;" edge="1" parent="1" source="tqdT14tDcLekjKXoYSyh-33" target="tqdT14tDcLekjKXoYSyh-7">
          <mxGeometry width="50" height="50" relative="1" as="geometry">
            <mxPoint x="100" y="675" as="sourcePoint" />
            <mxPoint y="595" as="targetPoint" />
            <Array as="points">
              <mxPoint x="60" y="905" />
              <mxPoint x="60" y="665" />
              <mxPoint x="60" y="425" />
            </Array>
          </mxGeometry>
        </mxCell>
        <mxCell id="tqdT14tDcLekjKXoYSyh-47" value="&lt;font style=&quot;font-size: 18px;&quot;&gt;End&lt;/font&gt;" style="ellipse;whiteSpace=wrap;html=1;" vertex="1" parent="1">
          <mxGeometry x="600" y="245" width="157.5" height="80" as="geometry" />
        </mxCell>
        <mxCell id="itRAv-uE2gttykpcHnhK-2" value="&lt;font style=&quot;font-size: 18px;&quot;&gt;Семинар 3, задача 2. Составьте блок-схему на основе псевдокода&lt;br&gt;Бердюгин А.А.&lt;/font&gt;" style="text;html=1;strokeColor=none;fillColor=none;align=center;verticalAlign=middle;whiteSpace=wrap;rounded=0;" vertex="1" parent="1">
          <mxGeometry x="133.75" y="-10" width="652.5" height="30" as="geometry" />
        </mxCell>
      </root>
    </mxGraphModel>
  </diagram>
</mxfile>
